<svg width="121" height="211" viewBox="0 0 121 211" fill="none" xmlns="http://www.w3.org/2000/svg">
<path opacity="0.4" d="M14.1716 148.482H18.134V186.201C18.134 186.705 18.1685 187.21 18.2237 187.702L18.2893 188.178C18.3428 188.521 18.4049 188.864 18.4825 189.208C18.5239 189.382 18.5636 189.554 18.6084 189.715C18.6981 190.051 18.7999 190.389 18.919 190.729L19.0742 191.172C19.2536 191.638 19.452 192.102 19.6831 192.568C19.9143 193.027 20.1748 193.479 20.4543 193.933L20.7165 194.333C20.9218 194.645 21.1356 194.955 21.3651 195.263L21.6963 195.699C21.9379 195.999 22.188 196.299 22.445 196.593L22.778 196.97C23.5232 197.783 24.3684 198.585 25.2914 199.353L25.6829 199.67C26.0245 199.943 26.3695 200.213 26.73 200.477L27.2165 200.833C27.5823 201.093 27.9651 201.349 28.3481 201.6L28.7966 201.897C29.1227 202.102 29.4539 202.299 29.849 202.535L30.1836 202.732C30.4751 202.901 30.7702 203.065 31.0703 203.225L31.6326 203.531L32.264 203.86L32.9799 204.216L34.3255 204.847L34.6705 204.992L34.9499 205.137H34.9862C35.1691 205.216 35.3536 205.296 35.5382 205.373L37.1753 206.027C37.5756 206.182 37.9861 206.331 38.3932 206.474C42.1125 207.804 46.1491 208.822 50.3772 209.527V210.071H54.1345C57.4914 210.471 60.9467 210.674 64.4503 210.674C67.947 210.674 71.392 210.471 74.7455 210.071H78.5303V209.527C82.8257 208.806 86.9417 207.759 90.7627 206.386C91.0836 206.268 91.4061 206.151 91.7236 206.032L93.3538 205.378L94.5699 204.849C94.5699 204.849 95.4877 204.423 95.774 204.286L96.3192 204.019L97.2817 203.527L97.8217 203.236C98.1253 203.067 98.4323 202.899 98.7256 202.729L99.0999 202.508C99.4415 202.306 99.7813 202.102 100.107 201.895L100.544 201.609C100.937 201.35 101.32 201.093 101.693 200.824L102.171 200.483C102.533 200.214 102.885 199.941 103.228 199.665L103.613 199.354C104.532 198.587 105.379 197.785 106.128 196.97L106.447 196.603C106.714 196.304 106.966 196.001 107.208 195.696L107.537 195.266C107.763 194.955 107.984 194.642 108.193 194.328L108.45 193.933C108.726 193.482 108.99 193.029 109.219 192.568C109.452 192.107 109.649 191.638 109.83 191.164L109.987 190.722C110.102 190.389 110.204 190.051 110.29 189.725C110.339 189.554 110.382 189.382 110.423 189.206C110.499 188.864 110.56 188.521 110.61 188.178L110.68 187.707C110.734 187.21 110.77 186.705 110.77 186.201V148.482H114.727C122.195 148.482 120.917 140.859 120.917 140.859L110.77 144.208V26.9152C110.77 26.3442 110.725 25.7733 110.629 25.135L110.618 24.9935L110.577 24.7814C110.466 24.1655 110.32 23.6152 110.089 22.9787C109.925 22.5405 109.728 22.111 109.468 21.6331L109.362 21.4382L108.241 22.1058L109.276 21.2985C108.991 20.831 108.707 20.4256 108.412 20.0737L108.334 19.9822L108.308 19.9495L107.373 18.9282L107.339 18.961L106.985 18.6418C106.544 18.2692 106.116 17.9449 105.669 17.6499L105.467 17.524C105.051 17.2583 104.608 17.0065 104.063 16.7236L103.77 16.5718C103.252 16.3147 102.709 16.0732 102.145 15.849L101.826 15.73C101.324 15.5402 100.801 15.3573 100.266 15.19L99.8245 15.052C99.2052 14.8639 98.5634 14.6915 97.8958 14.5259L97.4939 14.4379C96.9109 14.3033 96.314 14.1756 95.7016 14.0583L95.2272 13.9652C94.5078 13.8324 93.7712 13.7133 93.0122 13.6047L92.5654 13.5408C91.8875 13.4459 91.1922 13.3597 90.485 13.2786L90.0451 13.2286C89.2239 13.1389 88.389 13.0613 87.5334 12.9905L87.0952 12.956C86.2914 12.8905 85.4789 12.8336 84.5559 12.7801L84.3506 12.7645C83.4191 12.7128 82.4686 12.6645 81.3922 12.6179C75.9444 12.3954 70.0343 12.3747 64.4503 12.3747C58.8663 12.3747 52.9614 12.3954 47.398 12.6214C46.432 12.6645 45.4866 12.7128 44.4343 12.7749L44.2498 12.7853C43.4218 12.8336 42.6127 12.8905 41.814 12.956L41.3655 12.9905C40.5151 13.0613 39.6784 13.1389 38.8607 13.2286L38.4173 13.2786C37.7118 13.3597 37.0235 13.4459 36.3387 13.5408L35.8919 13.6047C35.1346 13.7133 34.3979 13.8324 33.6838 13.9652L33.1956 14.0583C32.5901 14.1774 31.9915 14.3016 31.4188 14.4362L31.003 14.531C30.3354 14.6915 29.6988 14.864 29.0847 15.0486L28.6311 15.1917C28.098 15.3608 27.5805 15.5385 26.975 15.7644L26.7611 15.8472C26.1936 16.0732 25.6501 16.3147 25.1378 16.5683L24.7583 16.765C24.2926 17.0048 23.8526 17.2583 23.3938 17.5533L23.2299 17.6517C22.7796 17.9484 22.3553 18.2744 21.924 18.6401L21.5635 18.961L21.4997 18.9058L20.4974 20.0598C20.1938 20.4307 19.9057 20.8361 19.609 21.3243L19.5503 21.4261L19.4158 21.6711C19.1743 22.111 18.9793 22.537 18.8171 22.9683L18.7672 23.1011C18.5809 23.6152 18.436 24.1655 18.3325 24.7555L18.3031 24.8762L18.2772 25.116C18.1772 25.7733 18.134 26.3442 18.134 26.9152V144.208L7.98721 140.859C7.98721 140.859 6.71069 148.482 14.1716 148.482Z" fill="#262626"/>
<path d="M56.5493 0.130661C62.1368 0.130661 68.0434 0.151347 73.4946 0.37388C74.5624 0.420457 75.5181 0.468733 76.4479 0.520485L76.6567 0.536026C77.5779 0.589503 78.3904 0.646433 79.1891 0.711986L79.6341 0.746479C80.488 0.817206 81.3247 0.894856 82.1441 0.984559L82.5788 1.03459C83.2878 1.11567 83.9847 1.20189 84.6644 1.29676L85.1095 1.36061C85.8668 1.46929 86.6051 1.58834 87.3227 1.72117L87.7988 1.81428C88.413 1.93159 89.0081 2.05928 89.5929 2.19383L89.9931 2.28181C90.6624 2.44742 91.3042 2.61989 91.9252 2.80792L92.3668 2.94594C92.9033 3.11327 93.4208 3.29615 93.9211 3.4859L94.2402 3.60492C94.8061 3.82918 95.3512 4.07068 95.8687 4.32771L96.1619 4.47954C96.7071 4.76245 97.1487 5.01429 97.5679 5.27995L97.7697 5.40588C98.2165 5.70087 98.6426 6.02518 99.0842 6.39779L99.4361 6.71695L99.4723 6.68418L100.409 7.7054L100.431 7.73817L100.511 7.8296C100.806 8.18152 101.089 8.58692 101.375 9.05442L100.34 9.86173L101.461 9.19411L101.567 9.38907C101.825 9.86691 102.025 10.2965 102.189 10.7346C102.42 11.3712 102.558 11.9215 102.674 12.5373L102.717 12.7495L102.728 12.891C102.822 13.5292 102.869 14.1002 102.869 14.6712V173.957C102.869 174.46 102.833 174.966 102.778 175.463L102.71 175.934C102.655 176.277 102.593 176.62 102.519 176.962C102.477 177.138 102.438 177.31 102.388 177.481C102.301 177.807 102.195 178.145 102.082 178.478L101.929 178.92C101.748 179.394 101.548 179.863 101.32 180.324C101.089 180.785 100.828 181.238 100.545 181.688L100.29 182.084C100.081 182.397 99.8622 182.711 99.6362 183.022L99.3033 183.452C99.0652 183.757 98.8117 184.06 98.5495 184.359L98.2234 184.726C97.4764 185.541 96.6312 186.343 95.71 187.11L95.3253 187.421C94.9855 187.697 94.6301 187.969 94.2644 188.239L93.7934 188.58C93.4174 188.849 93.0361 189.106 92.6463 189.365L92.2047 189.651C91.8769 189.858 91.5388 190.062 91.1972 190.264L90.8246 190.485C90.5279 190.655 90.2277 190.823 89.9189 190.992L89.3824 191.283L88.4181 191.775L87.8713 192.042C87.5866 192.179 86.6724 192.605 86.6724 192.605L85.451 193.134L83.8208 193.788C83.5034 193.907 83.1809 194.024 82.8565 194.142C75.0161 196.96 65.9613 198.43 56.5493 198.43C47.1943 198.43 38.1842 196.979 30.4922 194.23C30.0833 194.087 29.6728 193.938 29.2709 193.783L27.6355 193.129C27.4544 193.052 27.2681 192.972 27.0869 192.893H27.0489L26.7661 192.748L26.4262 192.603L25.0789 191.972L24.3579 191.616L23.73 191.287L23.1659 190.981C22.8674 190.821 22.5707 190.657 22.2844 190.488L21.948 190.291C21.5495 190.055 21.2166 189.858 20.8974 189.653L20.4489 189.356C20.059 189.105 19.6847 188.849 19.3172 188.589L18.8256 188.233C18.4685 187.969 18.1252 187.699 17.7836 187.426L17.3869 187.109C16.4674 186.341 15.6205 185.539 14.8735 184.726L14.544 184.348C14.2852 184.055 14.0317 183.755 13.7988 183.455L13.4606 183.018C13.2329 182.711 13.019 182.401 12.8172 182.089L12.5498 181.688C12.2686 181.235 12.0116 180.783 11.7821 180.324C11.551 179.858 11.3509 179.394 11.1732 178.928L11.0197 178.485C10.9023 178.145 10.7954 177.807 10.7039 177.471C10.6608 177.31 10.6212 177.138 10.5849 176.964C10.5021 176.62 10.44 176.277 10.39 175.934L10.321 175.458C10.2658 174.966 10.2313 174.46 10.2313 173.957V14.6712C10.2313 14.1002 10.2762 13.5292 10.3711 12.872L10.4021 12.6322L10.4315 12.5114C10.5367 11.9214 10.6799 11.3712 10.8627 10.8571L10.9161 10.7243C11.0766 10.293 11.2733 9.86691 11.5131 9.42701L11.6458 9.18207L11.7045 9.08027C12.0047 8.59208 12.2876 8.18668 12.5998 7.81579L13.6003 6.66173L13.6642 6.71695L14.0178 6.39606C14.4491 6.03035 14.8803 5.70432 15.3289 5.40761L15.4875 5.30927C15.9516 5.01428 16.3932 4.76073 16.8556 4.52094L17.2368 4.32426C17.7457 4.07068 18.2891 3.82918 18.8583 3.6032L19.074 3.5204C19.6812 3.29441 20.1953 3.11672 20.7266 2.94766L21.1837 2.80451C21.7961 2.61993 22.4344 2.44742 23.0986 2.28699L23.516 2.1921C24.0922 2.05755 24.6839 1.93331 25.2963 1.81428L25.7845 1.72117C26.4953 1.58834 27.2301 1.46929 27.9874 1.36061L28.4411 1.29676C29.1191 1.20189 29.8074 1.11567 30.5146 1.03459L30.9597 0.984559C31.7774 0.894856 32.6123 0.817206 33.4611 0.746479L33.9095 0.711986C34.71 0.646433 35.5225 0.589508 36.3437 0.541206L36.5282 0.530846C37.5839 0.468743 38.5327 0.42046 39.497 0.377333C45.0586 0.15135 50.967 0.130661 56.5493 0.130661Z" fill="#E9EAE9"/>
<path d="M101.564 60.0559V14.6712C101.564 1.87637 81.4087 1.43475 56.5471 1.43475C31.6889 1.43475 11.5315 1.87637 11.5315 14.6712V60.0559H101.564Z" fill="#FAFAFA"/>
<path d="M56.548 4.61233C55.2646 4.61233 53.9932 4.6106 52.7356 4.60715C51.5056 4.60543 50.2929 4.60543 49.0922 4.60543H49.0871C39.7666 4.60543 30.8825 4.71757 24.5774 6.08209C17.8496 7.54667 14.7152 10.2722 14.7152 14.666V38.3097L98.3791 38.5374V14.666C98.3791 5.32475 84.1335 4.60543 64.0037 4.60543C62.803 4.60543 61.5869 4.60543 60.3586 4.60715C59.1011 4.6106 57.828 4.61233 56.548 4.61233ZM49.0871 4.2052H49.0922C50.2929 4.2052 51.5056 4.20866 52.7356 4.21038C55.2507 4.21383 57.8452 4.21383 60.3586 4.21038C61.5869 4.20866 62.8013 4.2052 64.0037 4.2052C84.3663 4.2052 98.7776 4.95731 98.7776 14.666V38.7358L98.7206 38.8773L98.5792 38.9325H98.5775L14.5168 38.7065L14.3184 38.5064V14.666C14.3184 10.0514 17.5529 7.20334 24.4946 5.69564C30.8325 4.31904 39.7459 4.2052 49.0871 4.2052Z" fill="#E9EAE9"/>
<path d="M56.5471 197.126C81.4087 197.126 101.564 186.753 101.564 173.957V138.505H11.5315V173.957C11.5315 186.753 31.6889 197.126 56.5471 197.126Z" fill="#FAFAFA"/>
<path d="M98.3856 141.684H14.713V173.957C14.713 184.792 33.8699 193.947 56.5476 193.947C79.2219 193.947 98.3856 184.792 98.3856 173.957V141.684ZM14.513 141.287H98.5805L98.7841 141.484V173.957C98.7841 185.006 79.4409 194.345 56.5476 194.345C33.6526 194.345 14.3128 185.006 14.3128 173.957V141.484L14.513 141.287Z" fill="#E9EAE9"/>
<path d="M11.5315 138.505H101.564V57.1526H11.5315V138.505Z" fill="#FAFAFA"/>
<path d="M94.3067 89.1698L99.199 90.1634V52.7451C99.199 52.7451 95.9507 60.5544 94.3067 64.9292V89.1698Z" fill="#373737"/>
<path d="M94.3067 115.405L99.199 130.694V91.6056L94.3067 90.6137V115.405Z" fill="#373737"/>
<path d="M18.7863 89.1698L13.894 90.1634V52.7451C13.894 52.7451 17.144 60.5544 18.7863 64.9292V89.1698Z" fill="#323232"/>
<path d="M18.7863 115.405L13.894 130.694V91.6056L18.7863 90.6137V115.405Z" fill="#323232"/>
<path d="M56.4788 151.655C79.7861 151.655 98.7066 147.046 99.0067 141.313L99.0171 141.174C99.0171 140.994 98.9964 140.818 98.955 140.639L98.9464 140.589L98.767 140.032L91.0473 116.289C86.331 118.308 72.6702 119.759 56.5477 119.759C40.4236 119.759 26.7679 118.308 22.0464 116.289L14.5372 139.405L13.93 141.255V141.265C14.1301 147.016 33.0938 151.655 56.4788 151.655Z" fill="#323232"/>
<path d="M56.5477 151.655C79.8223 151.646 98.7066 147.041 99.0067 141.313L99.0171 141.174C99.0171 140.994 98.9964 140.818 98.955 140.639L98.9464 140.589L98.767 140.032L91.0473 116.289C86.331 118.308 72.6702 119.759 56.5477 119.759V151.655Z" fill="#373737"/>
<path d="M56.4684 29.7517C33.1628 29.7517 14.2371 34.3593 13.9421 40.0934L13.93 40.2314C13.93 40.4109 13.949 40.5885 13.9887 40.7679L13.9956 40.818L14.1819 41.3734L21.8981 65.119C26.6127 63.0989 40.2735 61.6498 56.3976 61.6498C72.5201 61.6498 86.1826 63.0989 90.8989 65.119L98.4064 41.9996L99.0171 40.1521V40.1435C98.817 34.3886 79.8499 29.7517 56.4684 29.7517Z" fill="#323232"/>
<path d="M56.5477 61.6498C72.6081 61.6602 86.193 63.1075 90.8989 65.119L98.4064 41.9996L99.0171 40.1521V40.1435C98.817 34.3956 79.8965 29.7603 56.5477 29.7517V61.6498Z" fill="#373737"/>
<path d="M99.0171 40.1573L98.5789 41.4891V38.7359C98.8463 39.1913 98.9964 39.6691 99.0171 40.1453V40.1573Z" fill="#1D1D21"/>
<path d="M21.7674 65.7849V115.872L21.6898 116.133C26.0404 118.229 39.9962 119.759 56.5481 119.759C73.0984 119.759 87.0542 118.229 91.4065 116.133L91.3254 115.872V114.742V114.047V113.321V67.208V66.4818V65.7849V64.6549L91.4065 64.3945C87.0542 62.3002 73.0984 60.7701 56.5481 60.7701C39.9962 60.7701 26.0404 62.3002 21.6898 64.3945L21.7674 64.6549V65.7849Z" fill="#FAFAFA"/>
<path d="M56.5469 63.5647C71.9414 63.5647 83.5855 64.8671 88.5278 66.311V114.218C83.5855 115.662 71.9414 116.962 56.5469 116.962C41.1593 116.962 29.5099 115.662 24.5624 114.218V66.3092C29.5099 64.8654 41.1558 63.5647 56.5469 63.5647Z" fill="#F4F5F5"/>
<path d="M56.5471 194.145C33.7589 194.145 14.5124 184.899 14.5124 173.957V165.666C12.5924 168.24 11.5315 171.035 11.5315 173.957C11.5315 186.753 31.6889 197.126 56.5471 197.126C81.4087 197.126 101.564 186.753 101.564 173.957C101.564 171.035 100.5 168.24 98.58 165.666V173.957C98.58 184.899 79.3317 194.145 56.5471 194.145Z" fill="#333431"/>
<path d="M81.7571 193.155C93.7066 188.991 101.564 181.946 101.564 173.957C101.564 171.035 100.5 168.24 98.58 165.666V173.957C98.58 180.402 91.8971 186.258 81.7571 189.981V193.155Z" fill="#CCCCD5"/>
<path d="M11.5314 173.957C11.5314 181.946 19.3874 188.991 31.3403 193.155V189.981C21.1952 186.258 14.5124 180.402 14.5124 173.957V165.666C12.5924 168.24 11.5314 171.035 11.5314 173.957Z" fill="#CCCCD5"/>
<path d="M15.7026 178.628L13.5394 180.79C16.591 185.884 22.9479 190.231 31.3403 193.155V189.981C23.7173 187.185 18.0505 183.181 15.7026 178.628Z" fill="#CCCCD5"/>
<path d="M99.557 180.79L97.3921 178.628C95.0443 183.181 89.3791 187.185 81.7561 189.981V193.155C90.1416 190.231 96.5002 185.884 99.557 180.79Z" fill="#CCCCD5"/>
<path d="M81.7611 187.887V156.425L92.1615 181.896C89.6464 184.128 86.1117 186.196 81.7611 187.887Z" fill="#E1E1E1"/>
<path d="M20.931 181.896L31.3331 156.425V187.887C26.9842 186.196 23.4462 184.128 20.931 181.896Z" fill="#E1E1E1"/>
<path d="M92.1615 181.896C89.6464 184.128 86.1117 186.196 81.7611 187.887V156.425L92.1615 181.896Z" fill="#F4F5F5"/>
<path d="M20.931 181.896L31.3331 156.425V187.887C26.9842 186.196 23.4462 184.128 20.931 181.896Z" fill="#F4F5F5"/>
<path d="M80.2241 152.421C80.2241 151.998 80.5657 151.655 80.99 151.655C81.4144 151.655 81.7577 151.998 81.7577 152.421C81.7577 152.845 81.4144 153.19 80.99 153.19C80.5657 153.19 80.2241 152.845 80.2241 152.421Z" fill="#1D1D21"/>
<path d="M30.569 152.421C30.569 151.998 30.9105 151.655 31.3331 151.655C31.7575 151.655 32.1008 151.998 32.1008 152.421C32.1008 152.845 31.7575 153.19 31.3331 153.19C30.9105 153.19 30.569 152.845 30.569 152.421Z" fill="#1D1D21"/>
<path d="M42.4749 197.826H70.6193V195.741H42.4749V197.826Z" fill="#FAFAFA"/>
<path d="M42.4749 2.47668H70.6193V0.392792H42.4749V2.47668Z" fill="#FAFAFA"/>
<path d="M14.516 21.568V14.666C14.516 6.5927 25.0078 4.85384 39.6622 4.4933V1.67802C23.1689 2.35942 11.5333 4.94354 11.5333 14.666V18.5888L14.516 21.568Z" fill="#373737"/>
<path d="M38.6667 3.52727C26.3239 3.874 13.5257 5.20227 13.5257 14.666V19.1701L12.532 18.1782V14.666C12.532 7.08087 20.124 3.59283 38.6667 2.71477V3.52727Z" fill="#FAFAFA"/>
<path d="M73.4365 4.49324C88.0892 4.85378 98.5793 6.59264 98.5793 14.6659V21.5679L101.557 18.5888V14.6659C101.557 4.94348 89.9247 2.35936 73.4365 1.67796V4.49324Z" fill="#1D1D21"/>
<path d="M74.4316 2.71477C92.9777 3.59283 100.565 7.08087 100.565 14.666V18.1782L99.5744 19.1701V14.666C99.5744 5.20227 86.7744 3.874 74.4316 3.52727V2.71477Z" fill="#FAFAFA"/>
<path d="M11.5335 18.5888V14.666C11.5335 12.1715 12.2977 10.1446 13.7191 8.50403L15.7461 10.5344C14.9336 11.6833 14.5161 13.0461 14.5161 14.666V21.5679L11.5335 18.5888Z" fill="#CCCCD5"/>
<path d="M97.3476 10.5344L99.3711 8.50403C100.793 10.1446 101.557 12.1715 101.557 14.666V18.5888L98.5793 21.5679V14.666C98.5793 13.0461 98.1584 11.6833 97.3476 10.5344Z" fill="#CCCCD5"/>
<path d="M12.4593 132.7L0.0820065 128.615C0.0820065 128.615 -1.19288 136.238 6.26975 136.238H13.7324V132.427L12.4593 132.7Z" fill="#FAFAFA"/>
<path d="M100.637 132.7L113.011 128.615C113.011 128.615 114.288 136.238 106.829 136.238H99.3625V132.427L100.637 132.7Z" fill="#FAFAFA"/>
</svg>
