<svg width="178" height="78" viewBox="0 0 178 78" fill="none" xmlns="http://www.w3.org/2000/svg">
<path d="M2.86203 7.24785C3.00326 5.18526 3.07534 3.15247 3.10365 1.55003C12.6186 1.86929 30.2499 2.53238 35.6255 3.00451C39.1477 3.31386 48.2285 3.17961 58.3141 3.0305C58.773 3.02372 59.2341 3.0169 59.6968 3.0101C70.4069 2.85255 82.1077 2.69645 89.8541 3.00904C105.479 3.63956 139.882 3.51498 148.168 3.00745C154.145 2.64135 166.228 2.38564 172.927 2.28042C172.778 3.64226 172.643 5.27311 172.592 6.87067C172.554 8.05083 172.561 9.23924 172.647 10.3008C172.731 11.3281 172.899 12.373 173.254 13.1858C173.777 14.3828 174.345 17.3067 174.634 20.978C174.918 24.5876 174.914 28.6847 174.409 32.1265C173.956 35.2066 174.244 40.1548 174.743 44.9408C175.167 49.0032 175.758 53.081 176.252 56.0646C172.944 56.3639 166.093 56.7704 156.295 56.7704L108.88 56.7704L108.401 56.7704L108.011 57.0481C105.595 58.7662 102.261 62.4086 99.1596 66.1123C96.6241 69.1402 94.159 72.3142 92.3359 74.7519C90.8981 73.019 88.4974 70.4605 85.2061 67.6998C80.6809 63.9042 75.8748 59.7091 74.0402 58.0885L73.5949 57.6951L73.0009 57.7134C69.437 57.8233 65.4934 57.9311 61.0116 58.0294C43.3287 58.4169 17.3931 57.2753 5.45572 56.5924C5.04734 53.756 4.51148 49.8683 4.05522 46.2015C3.52423 41.9341 3.11841 38.0956 3.11841 36.4977C3.11841 35.3275 2.94884 33.6293 2.73323 31.7543C2.647 31.0045 2.55311 30.2242 2.45656 29.422C2.30552 28.1668 2.148 26.8579 2.00327 25.5277C1.76749 23.3607 1.57494 21.2158 1.51747 19.3376C1.45886 17.422 1.54748 15.9281 1.80161 14.9921C2.3494 12.9747 2.67191 10.0244 2.86203 7.24785Z" fill="white" stroke="#1D1D21" stroke-width="3"/>
</svg>
