<svg width="143" height="143" viewBox="0 0 143 143" fill="none" xmlns="http://www.w3.org/2000/svg">
<circle cx="71.5" cy="71.5" r="71.5" fill="#383838"/>
<circle cx="70" cy="70" r="68" fill="url(#paint0_linear_1_311)"/>
<circle cx="70" cy="70" r="62" fill="#D9D9D9"/>
<path fill-rule="evenodd" clip-rule="evenodd" d="M70 132C104.242 132 132 104.242 132 70C132 35.7583 104.242 8 70 8C35.7583 8 8 35.7583 8 70C8 104.242 35.7583 132 70 132ZM70 132C102.585 132 129 105.585 129 73C129 40.4152 102.585 14 70 14C37.4152 14 11 40.4152 11 73C11 105.585 37.4152 132 70 132Z" fill="#C7C7C7"/>
<path d="M68 20C68 18.8954 68.8954 18 70 18C71.1046 18 72 18.8954 72 20V40C72 41.1046 71.1046 42 70 42C68.8954 42 68 41.1046 68 40V20Z" fill="#C7C7C7"/>
<path d="M60 21C60 19.8954 60.8954 19 62 19C63.1046 19 64 19.8954 64 21V40C64 41.1046 63.1046 42 62 42C60.8954 42 60 41.1046 60 40V21Z" fill="#C7C7C7"/>
<path d="M52 23C52 21.8954 52.8954 21 54 21C55.1046 21 56 21.8954 56 23V40C56 41.1046 55.1046 42 54 42C52.8954 42 52 41.1046 52 40V23Z" fill="#C7C7C7"/>
<path d="M44 27C44 25.8954 44.8954 25 46 25C47.1046 25 48 25.8954 48 27V40C48 41.1046 47.1046 42 46 42C44.8954 42 44 41.1046 44 40V27Z" fill="#C7C7C7"/>
<path d="M36 32C36 30.8954 36.8954 30 38 30C39.1046 30 40 30.8954 40 32V40C40 41.1046 39.1046 42 38 42C36.8954 42 36 41.1046 36 40V32Z" fill="#C7C7C7"/>
<path d="M80 21C80 19.8954 79.1046 19 78 19C76.8954 19 76 19.8954 76 21V40C76 41.1046 76.8954 42 78 42C79.1046 42 80 41.1046 80 40V21Z" fill="#C7C7C7"/>
<path d="M88 23C88 21.8954 87.1046 21 86 21C84.8954 21 84 21.8954 84 23V40C84 41.1046 84.8954 42 86 42C87.1046 42 88 41.1046 88 40V23Z" fill="#C7C7C7"/>
<path d="M96 27C96 25.8954 95.1046 25 94 25C92.8954 25 92 25.8954 92 27V40C92 41.1046 92.8954 42 94 42C95.1046 42 96 41.1046 96 40V27Z" fill="#C7C7C7"/>
<path d="M104 32C104 30.8954 103.105 30 102 30C100.895 30 100 30.8954 100 32V40C100 41.1046 100.895 42 102 42C103.105 42 104 41.1046 104 40V32Z" fill="#C7C7C7"/>
<path d="M68 120C68 121.105 68.8954 122 70 122C71.1046 122 72 121.105 72 120V100C72 98.8954 71.1046 98 70 98C68.8954 98 68 98.8954 68 100V120Z" fill="#C7C7C7"/>
<path d="M60 119C60 120.105 60.8954 121 62 121C63.1046 121 64 120.105 64 119V100C64 98.8954 63.1046 98 62 98C60.8954 98 60 98.8954 60 100V119Z" fill="#C7C7C7"/>
<path d="M52 117C52 118.105 52.8954 119 54 119C55.1046 119 56 118.105 56 117V100C56 98.8954 55.1046 98 54 98C52.8954 98 52 98.8954 52 100V117Z" fill="#C7C7C7"/>
<path d="M44 113C44 114.105 44.8954 115 46 115C47.1046 115 48 114.105 48 113V100C48 98.8954 47.1046 98 46 98C44.8954 98 44 98.8954 44 100V113Z" fill="#C7C7C7"/>
<path d="M36 108C36 109.105 36.8954 110 38 110C39.1046 110 40 109.105 40 108V100C40 98.8954 39.1046 98 38 98C36.8954 98 36 98.8954 36 100V108Z" fill="#C7C7C7"/>
<path d="M80 119C80 120.105 79.1046 121 78 121C76.8954 121 76 120.105 76 119V100C76 98.8954 76.8954 98 78 98C79.1046 98 80 98.8954 80 100V119Z" fill="#C7C7C7"/>
<path d="M88 117C88 118.105 87.1046 119 86 119C84.8954 119 84 118.105 84 117V100C84 98.8954 84.8954 98 86 98C87.1046 98 88 98.8954 88 100V117Z" fill="#C7C7C7"/>
<path d="M96 113C96 114.105 95.1046 115 94 115C92.8954 115 92 114.105 92 113V100C92 98.8954 92.8954 98 94 98C95.1046 98 96 98.8954 96 100V113Z" fill="#C7C7C7"/>
<path d="M104 108C104 109.105 103.105 110 102 110C100.895 110 100 109.105 100 108V100C100 98.8954 100.895 98 102 98C103.105 98 104 98.8954 104 100V108Z" fill="#C7C7C7"/>
<path d="M66.7376 50.3448C67.1394 47.0345 68.9139 42.069 69.751 40C72.5634 43.3103 75.6103 56.5517 76.7821 62.7586C80.3981 64 93.6904 63.2759 99.8845 62.7586C99.3822 63.6207 97.072 66.069 91.8489 68.9655C86.6257 71.8621 82.6414 75.6897 81.3021 77.2414C80.9004 80.5517 85.8222 93.7931 88.3333 100C86.994 99.1379 83.7128 96.8965 81.3021 94.8276C78.8915 92.7586 72.2621 87.7586 69.2487 85.5172C67.4072 87.2414 63.3225 90.7931 61.7154 91.2069C60.1082 91.6207 53.6798 96.5517 50.6664 98.9655C52.0057 96.2069 54.7847 90.069 55.1864 87.5862C55.5882 85.1034 57.0279 78.9655 57.6976 76.2069C56.4922 73.3103 44.8071 66.3793 39.1152 63.2759C41.2915 63.6207 46.4477 64.1034 49.662 63.2759C52.8762 62.4483 59.0368 62.5862 61.7154 62.7586C63.222 60 66.3358 53.6552 66.7376 50.3448Z" fill="#ECECEC"/>
<path fill-rule="evenodd" clip-rule="evenodd" d="M70.2056 40.6163C69.4075 42.9365 68.5419 45.8486 68.2762 48.0371C67.8744 51.3475 64.7606 57.6923 63.254 60.4509C63.1496 60.4442 63.04 60.4375 62.9254 60.431C64.4844 57.3019 66.4261 52.9114 66.7376 50.3448C67.1394 47.0345 68.9139 42.069 69.751 40C69.9019 40.1777 70.0536 40.384 70.2056 40.6163ZM99.1428 62.8188C97.8506 63.8958 95.9771 65.2217 93.3875 66.6578C88.1643 69.5544 84.18 73.382 82.8408 74.9337C82.8159 75.1384 82.8114 75.381 82.8255 75.6576C84.7607 73.7925 87.9617 71.1212 91.8489 68.9655C97.072 66.069 99.3822 63.6207 99.8845 62.7586C99.6473 62.7784 99.3998 62.7985 99.1428 62.8188ZM86.5348 95.3976C85.3064 94.5084 83.9769 93.495 82.8408 92.5199C80.4301 90.4509 73.8007 85.4509 70.7873 83.2095C68.9459 84.9337 64.8611 88.4854 63.254 88.8992C61.6469 89.313 55.2184 94.244 52.205 96.6578C53.5443 93.8992 56.3233 87.7613 56.725 85.2785C57.1268 82.7958 58.5665 76.6578 59.2362 73.8992C58.3178 71.6924 51.3164 67.1437 45.5169 63.7301C43.0204 63.763 40.481 63.4923 39.1152 63.2759C44.8071 66.3793 56.4922 73.3103 57.6976 76.2069C57.0279 78.9655 55.5882 85.1034 55.1864 87.5862C54.7847 90.069 52.0057 96.2069 50.6664 98.9655C53.6798 96.5517 60.1082 91.6207 61.7154 91.2069C63.3225 90.7931 67.4072 87.2414 69.2487 85.5172C72.2621 87.7586 78.8915 92.7586 81.3021 94.8276C83.7128 96.8965 86.994 99.1379 88.3333 100C87.8141 98.7166 87.1918 97.1325 86.5348 95.3976Z" fill="#D0D0D0"/>
<path d="M70.8941 39.0288C70.5543 38.6289 70.0302 38.4356 69.5121 38.5191C68.994 38.6027 68.5573 38.951 68.3604 39.4374C67.5193 41.5165 65.6762 46.6409 65.2485 50.1641C65.0767 51.5803 64.2825 53.815 63.2647 56.1618C62.4523 58.0348 61.5481 59.8665 60.8434 61.2086C59.4923 61.1457 57.6977 61.1043 55.8583 61.1426C53.5675 61.1903 51.075 61.3631 49.2879 61.8232C47.8893 62.1834 45.9665 62.2753 44.0455 62.2162C42.1498 62.1579 40.3797 61.9575 39.35 61.7943C38.629 61.6801 37.9305 62.1014 37.6953 62.7924C37.46 63.4834 37.7563 64.2434 38.3972 64.5928C41.2191 66.1315 45.5262 68.619 49.2659 71.0731C51.1383 72.3018 52.8411 73.5043 54.1372 74.5627C54.786 75.0924 55.3099 75.5676 55.6954 75.9762C55.8712 76.1626 56.0018 76.3182 56.0972 76.4437C55.3857 79.4017 54.0913 84.9637 53.7057 87.3466C53.5377 88.3849 52.817 90.3787 51.8934 92.5955C50.9941 94.7536 49.9769 96.9513 49.317 98.3104C49.0107 98.9413 49.1825 99.7003 49.7306 100.138C50.2787 100.575 51.0568 100.575 51.6042 100.136C53.0984 98.9393 55.4394 97.1184 57.5995 95.55C58.6811 94.7647 59.7019 94.054 60.5409 93.5192C60.9611 93.2514 61.3204 93.0375 61.6094 92.8832C61.7534 92.8063 61.8697 92.7497 61.9598 92.7103C62.0552 92.6687 62.0944 92.6582 62.0894 92.6595C62.7516 92.489 63.4876 92.064 64.1339 91.6402C64.8249 91.1872 65.5833 90.6197 66.3279 90.0274C67.3957 89.178 68.4744 88.2463 69.3468 87.4618C72.6404 89.9252 78.1963 94.1387 80.3252 95.9658C82.811 98.0993 86.1572 100.383 87.5214 101.261C88.0711 101.615 88.7866 101.572 89.29 101.155C89.7935 100.738 89.969 100.043 89.7238 99.4374C88.4765 96.3543 86.6303 91.5233 85.149 87.0618C84.4076 84.8291 83.7653 82.7117 83.3346 80.9625C83.1192 80.0874 82.9618 79.3248 82.8701 78.6981C82.818 78.3416 82.7915 78.0568 82.7825 77.837C84.2981 76.2003 87.9298 72.8541 92.5763 70.2773C95.2611 68.7884 97.2249 67.3996 98.5995 66.2496C99.939 65.129 100.799 64.1688 101.181 63.5137C101.462 63.0304 101.451 62.4306 101.153 61.9577C100.854 61.4847 100.317 61.2173 99.7596 61.2638C96.6855 61.5205 91.8466 61.8287 87.3367 61.9184C85.0805 61.9633 82.9266 61.9531 81.1261 61.8572C79.842 61.7888 78.8134 61.6797 78.0748 61.5406C77.4602 58.4166 76.4793 54.0076 75.3262 49.8887C74.6895 47.6142 73.9935 45.4039 73.2698 43.5375C72.5644 41.718 71.7728 40.063 70.8941 39.0288Z" stroke="#383838" stroke-width="3" stroke-linejoin="round"/>
<defs>
<linearGradient id="paint0_linear_1_311" x1="133" y1="15.5" x2="19" y2="126.5" gradientUnits="userSpaceOnUse">
<stop offset="0.205335" stop-color="#6C6C6C"/>
<stop offset="0.505" stop-color="#8E8E8E"/>
<stop offset="0.859095" stop-color="#6C6C6C"/>
</linearGradient>
</defs>
</svg>
