<svg
              width="143"
              height="143"
              viewBox="0 0 143 143"
              fill="none"
              xmlns="http://www.w3.org/2000/svg"
            >
              <circle cx="71.5" cy="71.5" r="71.5" fill="#383838" />
              <circle cx="70" cy="70" r="68" fill="url(#paint0_linear_1_163)" />
              <circle cx="70" cy="70" r="62" fill="#4A4A4A" />
              <path
                fill-rule="evenodd"
                clip-rule="evenodd"
                d="M70 132C104.242 132 132 104.242 132 70C132 35.7583 104.242 8 70 8C35.7583 8 8 35.7583 8 70C8 104.242 35.7583 132 70 132ZM70 132C102.585 132 129 105.585 129 73C129 40.4152 102.585 14 70 14C37.4152 14 11 40.4152 11 73C11 105.585 37.4152 132 70 132Z"
                fill="#434343"
              />
              <path
                d="M68 20C68 18.8954 68.8954 18 70 18C71.1046 18 72 18.8954 72 20V40C72 41.1046 71.1046 42 70 42C68.8954 42 68 41.1046 68 40V20Z"
                fill="#383838"
              />
              <path
                d="M60 21C60 19.8954 60.8954 19 62 19C63.1046 19 64 19.8954 64 21V40C64 41.1046 63.1046 42 62 42C60.8954 42 60 41.1046 60 40V21Z"
                fill="#383838"
              />
              <path
                d="M52 23C52 21.8954 52.8954 21 54 21C55.1046 21 56 21.8954 56 23V40C56 41.1046 55.1046 42 54 42C52.8954 42 52 41.1046 52 40V23Z"
                fill="#383838"
              />
              <path
                d="M44 27C44 25.8954 44.8954 25 46 25C47.1046 25 48 25.8954 48 27V40C48 41.1046 47.1046 42 46 42C44.8954 42 44 41.1046 44 40V27Z"
                fill="#383838"
              />
              <path
                d="M36 32C36 30.8954 36.8954 30 38 30C39.1046 30 40 30.8954 40 32V40C40 41.1046 39.1046 42 38 42C36.8954 42 36 41.1046 36 40V32Z"
                fill="#383838"
              />
              <path
                d="M80 21C80 19.8954 79.1046 19 78 19C76.8954 19 76 19.8954 76 21V40C76 41.1046 76.8954 42 78 42C79.1046 42 80 41.1046 80 40V21Z"
                fill="#383838"
              />
              <path
                d="M88 23C88 21.8954 87.1046 21 86 21C84.8954 21 84 21.8954 84 23V40C84 41.1046 84.8954 42 86 42C87.1046 42 88 41.1046 88 40V23Z"
                fill="#383838"
              />
              <path
                d="M96 27C96 25.8954 95.1046 25 94 25C92.8954 25 92 25.8954 92 27V40C92 41.1046 92.8954 42 94 42C95.1046 42 96 41.1046 96 40V27Z"
                fill="#383838"
              />
              <path
                d="M104 32C104 30.8954 103.105 30 102 30C100.895 30 100 30.8954 100 32V40C100 41.1046 100.895 42 102 42C103.105 42 104 41.1046 104 40V32Z"
                fill="#383838"
              />
              <path
                d="M68 120C68 121.105 68.8954 122 70 122C71.1046 122 72 121.105 72 120V100C72 98.8954 71.1046 98 70 98C68.8954 98 68 98.8954 68 100V120Z"
                fill="#383838"
              />
              <path
                d="M60 119C60 120.105 60.8954 121 62 121C63.1046 121 64 120.105 64 119V100C64 98.8954 63.1046 98 62 98C60.8954 98 60 98.8954 60 100V119Z"
                fill="#383838"
              />
              <path
                d="M52 117C52 118.105 52.8954 119 54 119C55.1046 119 56 118.105 56 117V100C56 98.8954 55.1046 98 54 98C52.8954 98 52 98.8954 52 100V117Z"
                fill="#383838"
              />
              <path
                d="M44 113C44 114.105 44.8954 115 46 115C47.1046 115 48 114.105 48 113V100C48 98.8954 47.1046 98 46 98C44.8954 98 44 98.8954 44 100V113Z"
                fill="#383838"
              />
              <path
                d="M36 108C36 109.105 36.8954 110 38 110C39.1046 110 40 109.105 40 108V100C40 98.8954 39.1046 98 38 98C36.8954 98 36 98.8954 36 100V108Z"
                fill="#383838"
              />
              <path
                d="M80 119C80 120.105 79.1046 121 78 121C76.8954 121 76 120.105 76 119V100C76 98.8954 76.8954 98 78 98C79.1046 98 80 98.8954 80 100V119Z"
                fill="#383838"
              />
              <path
                d="M88 117C88 118.105 87.1046 119 86 119C84.8954 119 84 118.105 84 117V100C84 98.8954 84.8954 98 86 98C87.1046 98 88 98.8954 88 100V117Z"
                fill="#383838"
              />
              <path
                d="M96 113C96 114.105 95.1046 115 94 115C92.8954 115 92 114.105 92 113V100C92 98.8954 92.8954 98 94 98C95.1046 98 96 98.8954 96 100V113Z"
                fill="#383838"
              />
              <path
                d="M104 108C104 109.105 103.105 110 102 110C100.895 110 100 109.105 100 108V100C100 98.8954 100.895 98 102 98C103.105 98 104 98.8954 104 100V108Z"
                fill="#383838"
              />
              <mask
                id="path-7-outside-1_1_163"
                maskUnits="userSpaceOnUse"
                x="36"
                y="55"
                width="70"
                height="34"
                fill="black"
              >
                <rect fill="white" x="36" y="55" width="70" height="34" />
                <path
                  d="M46.1525 63.5625C46.1525 64.8958 46.1004 67.1354 45.9963 70.2812C45.9129 73.1562 45.8817 75.3958 45.9025 77C45.9442 79.6667 45.4858 81 44.5275 81C43.2358 81 42.6733 79.9062 42.84 77.7188C43.0067 75.2604 43.1108 72.6667 43.1525 69.9375C43.1942 68.9792 43.2358 68.0104 43.2775 67.0312C43.3192 65.8438 43.2879 64.8854 43.1838 64.1562C43.1421 63.8438 43.0171 63.6875 42.8088 63.6875C42.6421 63.6875 42.2567 63.9062 41.6525 64.3438C41.0692 64.7604 40.6317 64.9688 40.34 64.9688C39.8817 64.9688 39.6108 64.4583 39.5275 63.4375V63.3438C39.5275 62.4688 40.2463 61.4792 41.6838 60.375C42.9754 59.4167 44.0483 58.9375 44.9025 58.9375C45.0483 58.9375 45.1838 58.9479 45.3088 58.9688C45.8713 59.0938 46.1525 60.625 46.1525 63.5625ZM53.5763 79.5C53.5763 81.0625 53.1075 82.4896 52.17 83.7812C51.3575 84.9479 50.6075 85.5312 49.92 85.5312C49.5658 85.5312 49.3888 85.2812 49.3888 84.7812C49.3888 84.3646 49.5346 83.8021 49.8263 83.0938C50.3263 81.9062 50.5763 80.8438 50.5763 79.9062C50.5763 79.6979 50.5658 79.4896 50.545 79.2812C50.4825 78.7812 50.5867 78.3958 50.8575 78.125C51.1283 77.8542 51.4721 77.7188 51.8888 77.7188C52.3263 77.7188 52.7117 77.875 53.045 78.1875C53.3992 78.5 53.5763 78.9375 53.5763 79.5ZM67.2812 69.4062C64.7188 71.0521 62.5417 71.875 60.75 71.875C58.6667 71.875 57.1042 70.7917 56.0625 68.625C55.3542 67.1667 55 65.8542 55 64.6875C55 62.3542 56.4271 60.6875 59.2812 59.6875C60.1979 59.3542 61.0938 59.1875 61.9688 59.1875C64.3021 59.1875 66.2604 60.2604 67.8438 62.4062C69.2812 64.3854 70.0625 66.7396 70.1875 69.4688V70.125C70.1875 72.6458 69.5312 74.7396 68.2188 76.4062C65.8438 79.4479 63.0938 80.9688 59.9688 80.9688C59.7604 80.9688 59.5417 80.9583 59.3125 80.9375C56.125 80.7292 54.5312 80.0833 54.5312 79C54.5312 78.625 54.6354 78.2708 54.8438 77.9375C55.0729 77.5833 55.3646 77.4062 55.7188 77.4062C55.9271 77.4062 56.1771 77.4479 56.4688 77.5312C57.3646 77.8229 58.2812 77.9688 59.2188 77.9688C61.4271 77.9688 63.3125 77.2812 64.875 75.9062C66.5208 74.4479 67.3438 72.6146 67.3438 70.4062C67.3438 70.0729 67.3229 69.7396 67.2812 69.4062ZM66.6562 66.6562C65.6771 63.5938 64.0729 62.0625 61.8438 62.0625C61.4688 62.0625 61.0833 62.1042 60.6875 62.1875C58.7292 62.625 57.75 63.5625 57.75 65C57.75 65.6667 57.9583 66.4479 58.375 67.3438C58.9375 68.5312 59.8229 69.125 61.0312 69.125C62.4688 69.125 64.3438 68.3021 66.6562 66.6562ZM84.08 72.7188C84.1217 73.3021 84.1633 73.8854 84.205 74.4688C84.2883 75.5312 84.33 76.4375 84.33 77.1875C84.33 79.6875 83.9029 80.9583 83.0488 81H83.0175C81.9133 81 81.3613 79.3229 81.3613 75.9688C81.3613 75.4271 81.3717 74.8125 81.3925 74.125C81.4133 73.75 81.4342 73.3646 81.455 72.9688C80.6633 73.0729 79.8717 73.1667 79.08 73.25C77.8508 73.3958 76.8092 73.4688 75.955 73.4688C73.3092 73.4688 71.8925 72.8229 71.705 71.5312V71.4062C71.705 70.7188 72.3821 69.4062 73.7363 67.4688C75.1529 65.4271 76.6946 63.6042 78.3613 62C80.2363 60.1667 81.6529 59.25 82.6113 59.25C83.6321 59.25 84.1425 60.9062 84.1425 64.2188C84.1425 64.9688 84.1113 66.0208 84.0488 67.375C84.0071 68.6458 83.9863 69.4688 83.9863 69.8438C85.0696 69.6979 85.6842 69.625 85.83 69.625C86.9133 69.625 87.455 70.0417 87.455 70.875C87.455 71.9375 86.9342 72.5104 85.8925 72.5938L84.08 72.7188ZM81.5488 70.1875C81.6529 65.9167 81.5696 63.6979 81.2988 63.5312C80.9446 63.3438 79.7363 64.4688 77.6738 66.9062C76.1738 68.6562 75.4238 69.8125 75.4238 70.375C75.4238 70.6458 75.7154 70.7812 76.2988 70.7812C77.1946 70.7812 78.9446 70.5833 81.5488 70.1875ZM102.316 79.7188C102.233 79.7604 102.129 79.7812 102.004 79.7812C100.879 79.7812 98.4204 77.8438 94.6287 73.9688C93.7746 75.2812 92.9204 76.5833 92.0662 77.875C90.6704 79.8542 89.6183 80.8438 88.91 80.8438C88.785 80.8438 88.66 80.8021 88.535 80.7188C88.4725 80.5521 88.4412 80.3646 88.4412 80.1562C88.4412 78.8854 89.8683 76.1771 92.7225 72.0312C91.3058 70.5312 90.4621 69.625 90.1912 69.3125C89.0662 68 88.4412 66.9479 88.3162 66.1562C88.2746 65.8854 88.2537 65.6667 88.2537 65.5C88.2537 64.9167 88.5454 64.625 89.1287 64.625C89.2537 64.625 89.41 64.6354 89.5975 64.6562C90.4308 64.8021 91.3162 65.5104 92.2537 66.7812C92.9412 67.7604 93.6287 68.75 94.3162 69.75C96.9829 66.1042 98.8475 64.2812 99.91 64.2812C100.222 64.2812 100.493 64.4167 100.722 64.6875C100.952 64.9583 101.066 65.2604 101.066 65.5938C101.066 66.3646 100.389 67.4896 99.035 68.9688C98.1183 69.9479 97.1912 70.9271 96.2537 71.9062C97.4204 73.0312 98.5871 74.1562 99.7537 75.2812C101.545 77.1354 102.441 78.4583 102.441 79.25C102.441 79.4375 102.4 79.5938 102.316 79.7188Z"
                />
              </mask>
              <defs>
                <linearGradient
                  id="paint0_linear_1_163"
                  x1="133"
                  y1="15.5"
                  x2="19"
                  y2="126.5"
                  gradientUnits="userSpaceOnUse"
                >
                  <stop offset="0.205335" stop-color="#6C6C6C" />
                  <stop offset="0.505" stop-color="#8E8E8E" />
                  <stop offset="0.859095" stop-color="#6C6C6C" />
                </linearGradient>
              </defs>
            </svg>